<?xml version="1.0" encoding="UTF-8" standalone="no"?>
<!-- Generator: Adobe Illustrator 16.0.4, SVG Export Plug-In . SVG Version: 6.00 Build 0)  -->

<svg
   xmlns:dc="http://purl.org/dc/elements/1.1/"
   xmlns:cc="http://creativecommons.org/ns#"
   xmlns:rdf="http://www.w3.org/1999/02/22-rdf-syntax-ns#"
   xmlns:svg="http://www.w3.org/2000/svg"
   xmlns="http://www.w3.org/2000/svg"
   xmlns:xlink="http://www.w3.org/1999/xlink"
   xmlns:sodipodi="http://sodipodi.sourceforge.net/DTD/sodipodi-0.dtd"
   xmlns:inkscape="http://www.inkscape.org/namespaces/inkscape"
   version="1.1"
   id="Layer_1"
   x="0px"
   y="0px"
   width="610px"
   height="627px"
   viewBox="0 0 610 627"
   enable-background="new 0 0 610 627"
   xml:space="preserve"
   inkscape:version="0.91 r13725"
   sodipodi:docname="login-logo.svg"><sodipodi:namedview
     pagecolor="#ffffff"
     bordercolor="#666666"
     borderopacity="1"
     objecttolerance="10"
     gridtolerance="10"
     guidetolerance="10"
     inkscape:pageopacity="0"
     inkscape:pageshadow="2"
     inkscape:window-width="1920"
     inkscape:window-height="1017"
     id="namedview3365"
     showgrid="false"
     inkscape:zoom="1.4908087"
     inkscape:cx="283.91421"
     inkscape:cy="256.61012"
     inkscape:window-x="-8"
     inkscape:window-y="-8"
     inkscape:window-maximized="1"
     inkscape:current-layer="Dark_1_" /><metadata
     id="metadata3369"><rdf:RDF><cc:Work
         rdf:about=""><dc:format>image/svg+xml</dc:format><dc:type
           rdf:resource="http://purl.org/dc/dcmitype/StillImage" /><dc:title></dc:title></cc:Work></rdf:RDF></metadata><defs
     id="defs3367"><linearGradient
       gradientTransform="matrix(1,0,0,-1,-56,515)"
       y2="511.9028"
       x2="358.18259"
       y1="231.4922"
       x1="358.18259"
       gradientUnits="userSpaceOnUse"
       id="linearGradient3408"><stop
         id="stop3357-2"
         style="stop-color:#FFFFFF"
         offset="0.0506" /><stop
         id="stop3359-2"
         style="stop-color:#FFFFFF;stop-opacity:0"
         offset="1" /></linearGradient><linearGradient
       y2="511.9028"
       x2="358.18259"
       y1="231.4922"
       x1="358.18259"
       gradientTransform="matrix(1,0,0,-1,-56,515)"
       gradientUnits="userSpaceOnUse"
       id="linearGradient3420"
       xlink:href="#App_2_"
       inkscape:collect="always" /><linearGradient
       y2="511.9028"
       x2="358.18259"
       y1="231.4922"
       x1="358.18259"
       gradientTransform="matrix(1,0,0,-1,-56,515)"
       gradientUnits="userSpaceOnUse"
       id="linearGradient3422"
       xlink:href="#App_2_"
       inkscape:collect="always" /></defs><filter
     id="AI_GaussianBlur_7"><feGaussianBlur
       id="feGaussianBlur3338"
       stdDeviation="7" /></filter><g
     id="Dark_1_"><g
       id="OS_1_"><g
         filter="url(#AI_GaussianBlur_7)"
         opacity="0.3"
         id="Shadow"><path
           id="path3348"
           d="M393.896,389.912l-74.759,49.809c-10.027,6.683-23.146,6.623-33.227-0.147l-75.484-50.707     c-6.568-4.412-6.627-14.037-0.111-18.423l74.685-50.256c10.08-6.783,23.321-6.725,33.454,0.148l75.414,51.156     C400.418,375.932,400.432,385.557,393.896,389.912z"
           fill="#010101" /></g><path
         d="M419.105,337.824l-95.349,63.526c-12.791,8.521-29.521,8.447-42.378-0.188l-96.272-64.672    c-8.377-5.627-8.452-17.904-0.143-23.495l95.254-64.099c12.856-8.651,29.744-8.576,42.666,0.189l96.185,65.244    C427.422,319.995,427.439,332.271,419.105,337.824z"
         fill="#104C9B"
         id="OS" /></g><g
       id="SDK"><path
         d="M332.514,341.055c-18.063,12.034-41.693,11.93-59.85-0.267l-64.557-43.367l-2.231,1.501    l66.788,44.866c18.156,12.194,41.785,12.301,59.85,0.267l65.773-43.823l-2.232-1.514L332.514,341.055z"
         fill="#1D3D70"
         id="Shadow_1_" /><path
         d="M467.164,251.341l-134.65,89.714c-18.063,12.034-41.693,11.93-59.85-0.267l-135.959-91.332    c-11.831-7.948-11.937-25.285-0.202-33.182l134.521-90.523c18.156-12.218,42.007-12.112,60.255,0.268l135.834,92.14    C478.91,226.161,478.936,243.498,467.164,251.341z"
         fill="#5FA9DD"
         id="SDK_1_" /></g><g
       transform="matrix(0.36227531,0,0,0.36629749,109.50299,179.54924)"
       id="App"><path
         style="opacity:0.3;fill:#1f5a79"
         inkscape:connector-curvature="0"
         d="M 500.512,164.939 338.701,272.748 c -21.707,14.462 -50.102,14.336 -71.92,-0.32 L 103.399,162.675 c -6.677,-4.485 -10.244,-11.458 -10.692,-18.577 -0.489,8.111 3.079,16.462 10.692,21.577 l 163.382,109.752 c 21.818,14.656 50.213,14.783 71.92,0.32 L 500.512,167.938 c 7.529,-5.018 11.041,-13.269 10.541,-21.339 -0.434,7.066 -3.944,13.944 -10.541,18.34 z"
         enable-background="new    "
         id="Depth" /><linearGradient
         gradientTransform="matrix(1,0,0,-1,-56,515)"
         y2="511.9028"
         x2="358.18259"
         y1="231.4922"
         x1="358.18259"
         gradientUnits="userSpaceOnUse"
         id="App_2_"><stop
           id="stop3357"
           style="stop-color:#FFFFFF"
           offset="0.0506" /><stop
           id="stop3359"
           style="stop-color:#FFFFFF;stop-opacity:0"
           offset="1" /></linearGradient><path
         inkscape:connector-curvature="0"
         style="fill:url(#linearGradient3422);fill-opacity:0.25;stroke:#ffffff;stroke-width:2;stroke-miterlimit:10;stroke-opacity:0.4"
         d="m 500.814,164.939 -161.81,107.809 c -21.707,14.462 -50.102,14.336 -71.92,-0.32 L 103.702,162.675 C 89.485,153.124 89.358,132.291 103.46,122.801 L 265.113,14.021 c 21.817,-14.682 50.479,-14.555 72.409,0.321 l 163.229,110.725 c 14.177,9.615 14.208,30.448 0.063,39.872 z"
         stroke-miterlimit="10"
         id="App_1_" /><g
         id="Highlight"><path
           style="opacity:0.4;fill:#ffffff"
           inkscape:connector-curvature="0"
           id="path3363"
           d="m 500.897,165.064 c 0,0 -24.233,16.326 -60.583,40.814 -18.182,12.235 -39.394,26.509 -62.119,41.802 -11.369,7.638 -23.117,15.531 -35.056,23.551 -1.518,0.996 -2.931,2.021 -4.541,2.999 -1.554,0.932 -3.016,1.951 -4.711,2.762 l -2.474,1.282 c -0.827,0.422 -1.69,0.741 -2.534,1.116 -0.853,0.354 -1.691,0.742 -2.557,1.069 l -2.626,0.896 c -7.021,2.342 -14.479,3.5 -21.917,3.299 -7.438,-0.159 -14.848,-1.564 -21.812,-4.132 -1.732,-0.659 -3.428,-1.417 -5.129,-2.147 -1.635,-0.867 -3.32,-1.644 -4.908,-2.587 -1.555,-0.975 -3.197,-1.904 -4.672,-2.917 -1.503,-0.999 -3.003,-1.996 -4.5,-2.991 -11.967,-7.977 -23.743,-15.827 -35.14,-23.425 -11.343,-7.676 -22.354,-15.029 -32.714,-22.122 -10.372,-7.075 -20.179,-13.763 -29.231,-19.937 -9.058,-6.166 -17.3,-11.909 -24.638,-16.951 -7.335,-5.046 -13.717,-9.465 -18.954,-13.131 -10.478,-7.328 -16.464,-11.515 -16.464,-11.515 l 0.167,-0.249 c 0,0 6.141,3.959 16.886,10.888 5.375,3.462 11.878,7.699 19.323,12.582 7.442,4.886 15.875,10.345 25.008,16.399 9.139,6.046 19.039,12.595 29.51,19.523 10.483,6.909 21.455,14.321 32.85,21.92 11.343,7.678 23.063,15.611 34.973,23.673 1.487,1.01 2.978,2.021 4.471,3.035 1.49,1.044 2.996,1.903 4.497,2.869 1.514,0.92 3.124,1.678 4.685,2.529 1.627,0.713 3.247,1.459 4.905,2.109 6.666,2.531 13.782,3.954 20.947,4.178 7.167,0.25 14.37,-0.811 21.166,-3.021 l 2.544,-0.845 c 0.837,-0.31 1.65,-0.679 2.478,-1.015 0.814,-0.355 1.662,-0.66 2.452,-1.056 l 2.36,-1.2 c 1.587,-0.732 3.112,-1.771 4.659,-2.684 1.483,-0.88 3.002,-1.956 4.497,-2.921 11.999,-7.928 23.808,-15.73 35.234,-23.28 22.866,-15.083 44.209,-29.162 62.502,-41.229 36.6,-24.114 60.999,-40.191 60.999,-40.191 l 0.167,0.251 z"
           enable-background="new    " /></g></g><g
       transform="matrix(0.36227531,0,0,0.36629749,274.71871,178.56706)"
       id="App-7"><path
         style="opacity:0.3;fill:#1f5a79"
         inkscape:connector-curvature="0"
         d="M 500.512,164.939 338.701,272.748 c -21.707,14.462 -50.102,14.336 -71.92,-0.32 L 103.399,162.675 c -6.677,-4.485 -10.244,-11.458 -10.692,-18.577 -0.489,8.111 3.079,16.462 10.692,21.577 l 163.382,109.752 c 21.818,14.656 50.213,14.783 71.92,0.32 L 500.512,167.938 c 7.529,-5.018 11.041,-13.269 10.541,-21.339 -0.434,7.066 -3.944,13.944 -10.541,18.34 z"
         enable-background="new    "
         id="Depth-3" /><linearGradient
         gradientTransform="matrix(1,0,0,-1,-56,515)"
         y2="511.9028"
         x2="358.18259"
         y1="231.4922"
         x1="358.18259"
         gradientUnits="userSpaceOnUse"
         id="linearGradient3384"><stop
           id="stop3386"
           style="stop-color:#FFFFFF"
           offset="0.0506" /><stop
           id="stop3388"
           style="stop-color:#FFFFFF;stop-opacity:0"
           offset="1" /></linearGradient><path
         inkscape:connector-curvature="0"
         style="fill:url(#linearGradient3420);fill-opacity:0.25;stroke:#ffffff;stroke-width:2;stroke-miterlimit:10;stroke-opacity:0.4"
         d="m 500.814,164.939 -161.81,107.809 c -21.707,14.462 -50.102,14.336 -71.92,-0.32 L 103.702,162.675 C 89.485,153.124 89.358,132.291 103.46,122.801 L 265.113,14.021 c 21.817,-14.682 50.479,-14.555 72.409,0.321 l 163.229,110.725 c 14.177,9.615 14.208,30.448 0.063,39.872 z"
         stroke-miterlimit="10"
         id="App_1_-0" /><g
         id="Highlight-0"><path
           style="opacity:0.4;fill:#ffffff"
           inkscape:connector-curvature="0"
           id="path3363-1"
           d="m 500.897,165.064 c 0,0 -24.233,16.326 -60.583,40.814 -18.182,12.235 -39.394,26.509 -62.119,41.802 -11.369,7.638 -23.117,15.531 -35.056,23.551 -1.518,0.996 -2.931,2.021 -4.541,2.999 -1.554,0.932 -3.016,1.951 -4.711,2.762 l -2.474,1.282 c -0.827,0.422 -1.69,0.741 -2.534,1.116 -0.853,0.354 -1.691,0.742 -2.557,1.069 l -2.626,0.896 c -7.021,2.342 -14.479,3.5 -21.917,3.299 -7.438,-0.159 -14.848,-1.564 -21.812,-4.132 -1.732,-0.659 -3.428,-1.417 -5.129,-2.147 -1.635,-0.867 -3.32,-1.644 -4.908,-2.587 -1.555,-0.975 -3.197,-1.904 -4.672,-2.917 -1.503,-0.999 -3.003,-1.996 -4.5,-2.991 -11.967,-7.977 -23.743,-15.827 -35.14,-23.425 -11.343,-7.676 -22.354,-15.029 -32.714,-22.122 -10.372,-7.075 -20.179,-13.763 -29.231,-19.937 -9.058,-6.166 -17.3,-11.909 -24.638,-16.951 -7.335,-5.046 -13.717,-9.465 -18.954,-13.131 -10.478,-7.328 -16.464,-11.515 -16.464,-11.515 l 0.167,-0.249 c 0,0 6.141,3.959 16.886,10.888 5.375,3.462 11.878,7.699 19.323,12.582 7.442,4.886 15.875,10.345 25.008,16.399 9.139,6.046 19.039,12.595 29.51,19.523 10.483,6.909 21.455,14.321 32.85,21.92 11.343,7.678 23.063,15.611 34.973,23.673 1.487,1.01 2.978,2.021 4.471,3.035 1.49,1.044 2.996,1.903 4.497,2.869 1.514,0.92 3.124,1.678 4.685,2.529 1.627,0.713 3.247,1.459 4.905,2.109 6.666,2.531 13.782,3.954 20.947,4.178 7.167,0.25 14.37,-0.811 21.166,-3.021 l 2.544,-0.845 c 0.837,-0.31 1.65,-0.679 2.478,-1.015 0.814,-0.355 1.662,-0.66 2.452,-1.056 l 2.36,-1.2 c 1.587,-0.732 3.112,-1.771 4.659,-2.684 1.483,-0.88 3.002,-1.956 4.497,-2.921 11.999,-7.928 23.808,-15.73 35.234,-23.28 22.866,-15.083 44.209,-29.162 62.502,-41.229 36.6,-24.114 60.999,-40.191 60.999,-40.191 l 0.167,0.251 z"
           enable-background="new    " /></g></g><text
       sodipodi:linespacing="125%"
       id="text3424"
       y="509.49069"
       x="155.48042"
       style="font-style:normal;font-variant:normal;font-weight:300;font-stretch:normal;font-size:70px;line-height:125%;font-family:'Segoe UI';-inkscape-font-specification:'Segoe UI Light';letter-spacing:0px;word-spacing:0px;fill:#5fa9dd;fill-opacity:1;stroke:none;stroke-width:1px;stroke-linecap:butt;stroke-linejoin:miter;stroke-opacity:1"
       xml:space="preserve"><tspan
         style="font-style:normal;font-variant:normal;font-weight:300;font-stretch:normal;font-size:70px;font-family:'Segoe UI';-inkscape-font-specification:'Segoe UI Light';fill:#5fa9dd;fill-opacity:1"
         y="509.49069"
         x="155.48042"
         id="tspan3426"
         sodipodi:role="line">dashboard</tspan></text>
<text
       sodipodi:linespacing="125%"
       id="text4228"
       y="556.59155"
       x="382.34225"
       style="font-style:normal;font-weight:normal;font-size:40px;line-height:125%;font-family:sans-serif;letter-spacing:0px;word-spacing:0px;fill:#104c9b;fill-opacity:1;stroke:none;stroke-width:1px;stroke-linecap:butt;stroke-linejoin:miter;stroke-opacity:1"
       xml:space="preserve"><tspan
         style="font-style:normal;font-variant:normal;font-weight:normal;font-stretch:normal;font-family:'Segoe UI';-inkscape-font-specification:'Segoe UI';fill:#104c9b;fill-opacity:1"
         y="556.59155"
         x="382.34225"
         id="tspan4230"
         sodipodi:role="line">SAM</tspan></text>
<g
       id="SDK-2"
       transform="matrix(0.29713665,0,0,0.29713665,225.2453,475.64077)" /><g
       id="text4253"
       style="font-style:normal;font-variant:normal;font-weight:bold;font-stretch:normal;font-size:40px;line-height:125%;font-family:'Segoe UI';-inkscape-font-specification:'Segoe UI Bold';letter-spacing:0px;word-spacing:0px;fill:#000000;fill-opacity:1;stroke:none;stroke-width:1px;stroke-linecap:butt;stroke-linejoin:miter;stroke-opacity:1"
       transform="matrix(-1,0,0,-1,630.32959,1086.3336)"><path
         id="path4258"
         d="m 306.79248,549.13228 c 0,0 -18.76906,-12.54982 -18.76906,-12.54982 0,0 4.66166,-3.04946 4.66166,-3.04946 0,0 -4.76439,-3.14744 -4.76439,-3.14744 0,0 -4.64984,3.01912 -4.64984,3.01912 0,0 -5.83842,-3.90382 -5.83842,-3.90382 0,0 -7.83578,5.04129 -7.83578,5.04129 0,0 5.8128,3.96689 5.8128,3.96689 0,0 -17.39365,11.29361 -17.39365,11.29361 0,0 4.90454,3.50195 4.90454,3.50195 2.8058,-0.13934 5.78497,-0.23495 8.9388,-0.28678 3.1719,-0.0424 6.33325,-0.019 9.48496,0.0702 3.15754,0.0893 6.21614,0.25815 9.17639,0.50669 2.99946,0.24624 5.72423,0.5773 8.17382,0.99352 0,0 8.09817,-5.45591 8.09817,-5.45591 0,0 0,0 0,0 m -36.13685,-1.18854 c 0,0 9.48594,-6.2053 9.48594,-6.2053 0,0 10.24606,6.99235 10.24606,6.99235 -1.54325,-0.18338 -3.15361,-0.33917 -4.83108,-0.46744 -1.66173,-0.11872 -3.35169,-0.20815 -5.07002,-0.26835 -1.70297,-0.0508 -3.39321,-0.0813 -5.07092,-0.0917 -1.66281,-10e-4 -3.24938,0.0125 -4.75998,0.0404 0,0 0,0 0,0 m -19.42455,-6.79942 25.48775,-16.98187 c 3.41913,-2.2779 7.89202,-2.25821 11.32894,0.0505 l 25.73553,17.28813 c 2.23948,1.50447 2.25954,4.78617 0.0382,6.28099 l -25.46334,17.135 c -3.43673,2.31273 -7.95146,2.29267 -11.4056,-0.0507 L 251.2407,547.4253 c -2.23304,-1.51469 -2.23796,-4.7964 -0.01,-6.28099 z m 25.48775,-16.98187 c 3.41913,-2.2779 7.89202,-2.25821 11.32894,0.0505 l 12.21993,8.20889 0.4223,-0.28412 -12.64223,-8.49264 c -3.43673,-2.30819 -7.90943,-2.32844 -11.32894,-0.0505 l -12.4501,8.29521 0.42249,0.28658 12.02761,-8.01393 z"
         inkscape:connector-curvature="0"
         style="fill:#104c9b;fill-opacity:1" /></g></g></svg>