
<svg xmlns="http://www.w3.org/2000/svg" xmlns:xlink="http://www.w3.org/1999/xlink" version="1.1" x="0px" y="0px" viewBox="0 0 100 100" enable-background="new 0 0 100 100" xml:space="preserve"><path fill-rule="evenodd" clip-rule="evenodd" d="M73.044,58.007l-4.905-3.333c0.076-1.563-1.059-2.95-2.639-3.153  c-1.663-0.215-3.184,0.959-3.398,2.62c-0.061,0.48-0.004,0.948,0.144,1.376L50.322,67.63c-0.3-0.152-0.629-0.26-0.982-0.306  c-0.541-0.069-1.068,0.011-1.539,0.204l-5.275-5.408c0.028-0.117,0.053-0.236,0.069-0.359c0.214-1.661-0.959-3.183-2.62-3.396  c-1.662-0.214-3.184,0.959-3.397,2.621c-0.021,0.166-0.025,0.331-0.021,0.493l-9.455,5.225l1.328,2.403l9.456-5.225  c0.381,0.26,0.825,0.438,1.313,0.5c0.53,0.068,1.046-0.006,1.511-0.191l5.295,5.429c-0.025,0.106-0.047,0.215-0.061,0.326  c-0.215,1.662,0.959,3.184,2.621,3.397c1.661,0.214,3.182-0.959,3.396-2.621c0.036-0.282,0.029-0.561-0.01-0.83l12.268-12.466  c0.162,0.05,0.33,0.09,0.504,0.112c0.748,0.096,1.465-0.089,2.05-0.473l4.728,3.213L73.044,58.007z"></path><path d="M69.916,81.249c0,0.525-0.426,0.951-0.951,0.951h-4.281c-0.525,0-0.951-0.426-0.951-0.951v-16.84  c0-0.525,0.426-0.951,0.951-0.951h4.281c0.525,0,0.951,0.426,0.951,0.951V81.249z"></path><path d="M58.932,81.249c0,0.525-0.426,0.951-0.951,0.951h-4.281c-0.525,0-0.95-0.426-0.95-0.951v-8.856  c0-0.525,0.425-0.952,0.95-0.952h4.281c0.525,0,0.951,0.427,0.951,0.952V81.249z"></path><path d="M47.947,81.249c0,0.525-0.426,0.951-0.951,0.951h-4.281c-0.525,0-0.951-0.426-0.951-0.951v-2.346  c0-0.525,0.426-0.951,0.951-0.951h4.281c0.525,0,0.951,0.426,0.951,0.951V81.249z"></path><path d="M36.964,81.249c0,0.525-0.426,0.951-0.952,0.951H31.73c-0.523,0-0.95-0.426-0.95-0.951v-6.173  c0-0.525,0.427-0.952,0.95-0.952h4.281c0.526,0,0.952,0.427,0.952,0.952V81.249z"></path><g><path d="M61.005,13.177h-1.933V10.72c0-1.552-1.256-2.808-2.809-2.808H43.738c-1.553,0-2.811,1.256-2.811,2.808v2.457h-1.93   c-1.553,0-2.811,1.257-2.811,2.81v3.046c0,1.553,1.258,2.809,2.811,2.809h22.007c1.552,0,2.808-1.256,2.808-2.809v-3.046   C63.813,14.434,62.557,13.177,61.005,13.177z"></path><polygon points="68.309,32.017 68.309,32.017 31.693,32.017 31.693,32.017 31.693,26.187 31.693,26.187 68.309,26.187    68.309,26.187  "></polygon><polygon points="68.309,43.212 68.309,43.212 31.693,43.212 31.693,43.212 31.693,37.381 31.693,37.381 68.309,37.381    68.309,37.381  "></polygon><polygon points="52.477,54.64 52.477,54.64 31.837,54.64 31.837,54.64 31.837,48.81 31.837,48.81 52.477,48.81 52.477,48.81  "></polygon><path d="M74.467,14.576h-7.228c0.103,0.456,0.175,0.924,0.175,1.411v3.046c0,0.354-0.049,0.697-0.105,1.037l7.266,0.015   l-0.006,66.494c0,0.052-0.037,0.107-0.109,0.107H25.535c-0.073,0-0.11-0.056-0.11-0.107l0.108-66.607l7.152,0.018   c-0.058-0.305-0.094-0.629-0.094-0.955v-3.042c0-0.485,0.073-0.955,0.162-1.421h-7.221c-3.041,0-5.51,2.484-5.51,5.509v66.499   c0,3.024,2.469,5.509,5.512,5.509h48.924c3.043,0,5.511-2.484,5.511-5.509l0.007-66.494C79.977,17.048,77.506,14.576,74.467,14.576   z"></path></g></svg>